<svg xmlns="http://www.w3.org/2000/svg" viewBox="0 0 24 24" enable-background="new 0 0 24 24" x="0px" y="0px"><g><path d="M12 1c-6.075 0-11 4.029-11 9 0 3.128 1.952 5.881 4.912 7.494l-.787 5.506 4.972-4.144c.62.089 1.253.144 1.903.144 6.075 0 11-4.029 11-9s-4.925-9-11-9z" stroke="#000" stroke-width="2" stroke-linecap="round" stroke-linejoin="round" stroke-miterlimit="10" fill="none"/><circle cx="12" cy="15" r="1"/><path d="M9 7c.496-1.335 1.765-2.031 3.062-2.031 1.117-.001 2.388.653 2.75 1.781.353 1.099-.187 2.397-.906 2.906-.75.532-1.906 1.406-1.906 2.344" stroke="#000" stroke-width="2" stroke-linecap="round" stroke-linejoin="round" stroke-miterlimit="10" fill="none"/></g>
</svg>
