<svg xmlns="http://www.w3.org/2000/svg" xmlns:xlink="http://www.w3.org/1999/xlink" version="1.1" x="0px" y="0px" viewBox="0 0 100 100" style="enable-background:new 0 0 100 100;" xml:space="preserve"><g><path d="M91.7,25.2l3.3-3.6L91.7,18H59.1H40.9H24.1V9.5L19,6.2l-5.1,3.3V18H8.3L5,21.6l3.3,3.6h5.6v68.6h10.1V25.2h9.5v4.1h-2.3   c-1.6,0-3,1.3-3,3v42.1c0,1.6,1.3,3,3,3h56.2c1.6,0,3-1.3,3-3V32.2c0-1.6-1.3-3-3-3h-1.1v-4.1H91.7z M36.9,25.2h4h18.3H83v4.1H36.9   V25.2z M35.2,36c-1,0-1.7-0.8-1.7-1.7c0-1,0.8-1.7,1.7-1.7c1,0,1.7,0.8,1.7,1.7C37,35.2,36.2,36,35.2,36z M71.8,53.4v11   c0,0.7-0.6,1.3-1.3,1.3h-7v-6.4c0-0.8-0.6-1.4-1.4-1.4H58c-0.8,0-1.4,0.6-1.4,1.4v6.4h-7c-0.7,0-1.3-0.6-1.3-1.3V53.2L43.5,53   l16-14.3c0.2-0.2,0.4-0.3,0.7-0.3c0.2,0,0.5,0.1,0.7,0.3l6.2,5.7v-4.2l4.7,0v8.6l4.8,4.4L71.8,53.4z M86.5,34.3   c0,1-0.8,1.7-1.7,1.7S83,35.2,83,34.3c0-1,0.8-1.7,1.7-1.7S86.5,33.3,86.5,34.3z"/><path d="M62,48.3h-3.8c-0.6,0-1,0.5-1,1v1c0,0.6,0.5,1,1,1H62c0.6,0,1-0.5,1-1v-1C63.1,48.8,62.6,48.3,62,48.3z"/></g>
</svg>
